<svg width="23" height="14" viewBox="0 0 23 14" fill="none" xmlns="http://www.w3.org/2000/svg">
<path d="M11.5 0C7.29531 0 4.01987 2.50536 0 6.57143C3.46027 10.0471 6.36607 13.1429 11.5 13.1429C16.6288 13.1429 20.4022 9.22054 23 6.6433C20.3406 3.62455 16.5723 0 11.5 0ZM11.5 11.2587C8.96384 11.2587 6.9 9.1538 6.9 6.57143C6.9 3.98393 8.96384 1.88415 11.5 1.88415C14.0362 1.88415 16.1 3.98906 16.1 6.57143C16.1 9.15893 14.0362 11.2587 11.5 11.2587Z" fill="#1C85E8"/>
<path d="M11.5 4.92849C11.5 4.52291 11.6489 4.15326 11.8902 3.86576C11.7618 3.84523 11.6335 3.83496 11.5 3.83496C10.0214 3.83496 8.81494 5.06197 8.81494 6.57134C8.81494 8.08072 10.0214 9.30773 11.5 9.30773C12.9786 9.30773 14.185 8.08072 14.185 6.57134C14.185 6.45326 14.1748 6.33518 14.1645 6.2171C13.8821 6.43786 13.533 6.57134 13.148 6.57134C12.2341 6.57134 11.5 5.83719 11.5 4.92849Z" fill="#1C85E8"/>
</svg>
