<svg width="200" height="53" fill="none" xmlns="http://www.w3.org/2000/svg">
  <path d="M4 29v1l1 1 1 1 2 1a57 57 0 0 1 5 2l2 2 1 3-1 2-2 2-2 2H8a18 18 0 0 1-4 0l-2-1-2-1 1-5 2 1v2l1 1 1 1a6 6 0 0 0 2 0h3l1-1 1-1v-3l-1-2-2-1a45 45 0 0 0-5-2l-2-1-1-2-1-2 1-2 2-2 2-1a14 14 0 0 1 6-1l1 1h2l1 1a12 12 0 0 0 0 1 159 159 0 0 1-1 3h-2v-2l-1-1-1-1a9 9 0 0 0-4 0l-1 1-1 1v2ZM21 27l1-1v-1h2v5h5v1l-1 1h-4v10l1 1v1a2 2 0 0 0 2 0h1v-1a20 20 0 0 0 0-2h2v4h-2l-3 1-3-1-1-4v-9h-3v-2h3v-3ZM38 33a31 31 0 0 1 2-3h2l1-1h2l1 1-1 4h-1l-1-2a32 32 0 0 1-1 0h-1l-1 1-2 2v9h2v2a130 130 0 0 0-7 0v-2h2V33a5 5 0 0 0 0-2 2 2 0 0 0-1 0h-2v-1a12 12 0 0 1 2 0 21 21 0 0 1 3 0h1v3ZM55 45l-1 1a25 25 0 0 1-3 0l-1-1-1-1a24 24 0 0 1 1-3v-8a7 7 0 0 0-1-2h-2v-1a15 15 0 0 1 3-1 12 12 0 0 1 3 1v11a13 13 0 0 0 0 3h2v1ZM70 40a159 159 0 0 0-1-7v-1a6 6 0 0 0-4-1l-2 1-1 1-1 2v3l1 4 3 2a4 4 0 0 0 3-1l1-1 1-2Zm3 1a13 13 0 0 0 0 3h3v1l-2 1a20 20 0 0 1-3 0h-1v-2a6 6 0 0 1-3 1l-1 1h-2l-2-1-2-1-2-3v-7l1-3 3-1 2-1 3 1 3 1v-6l-1-1a5 5 0 0 0-1-1h-1v-1h2a34 34 0 0 1 4 0v19ZM89 36v-2l-1-1-1-2h-1l-4 1-1 4h8Zm3 7-2 2-4 1-3-1-3-1-1-3-1-3 1-4 1-2 3-2a9 9 0 0 1 6 0l2 1 1 2a6 6 0 0 1 0 4v1H81l2 5 4 1h2l2-2 1 1ZM113 24v2a108 108 0 0 1 0 2h-2v-1a11 11 0 0 0 0-1h-2a26 26 0 0 0-5 0h-2v7h7v-1h1a65 65 0 0 1 0 5h-1l-1-1-1-1h-5v9h7l1-1h1v-1l1-1a31 31 0 0 1 2 0v1a20 20 0 0 1-1 3 11 11 0 0 1-3 1 67 67 0 0 1-10 0 96 96 0 0 0-4 0v-2h1a23 23 0 0 0 1-1l1-1V28a6 6 0 0 0-1-2h-3v-2h18ZM129 30a14 14 0 0 1 2 0 22 22 0 0 1 3 0h1v1h-3v20h1l1 1v1h-2a28 28 0 0 0-5 0v-1l1-1 1-1v-6l-3 1a8 8 0 0 1-5 0l-2-1-2-3v-7l1-3 2-1 3-1 3 1 3 1v-1Zm-1 3a8 8 0 0 0-4-2c-2 0-2 1-3 2l-1 5v2l1 2 1 2h2a5 5 0 0 0 4-2v-9ZM153 41a13 13 0 0 0 0 3h2v1l-2 1a18 18 0 0 1-3 0l-1-1v-1a29 29 0 0 1-2 1l-2 1h-2l-3-1-1-4v-8a6 6 0 0 0 0-2h-3v-1h1a14 14 0 0 1 2 0 26 26 0 0 1 2 0h1v13l1 1h3a13 13 0 0 0 3-1V31h-2v-1a14 14 0 0 1 2 0 26 26 0 0 1 3 0h1v11ZM159 24l1-2h3v4h-3a2 2 0 0 1-1-2Zm6 21-1 1a25 25 0 0 1-3 0l-1-1-1-1a24 24 0 0 1 1-3v-8a7 7 0 0 0-1-2h-2v-1a15 15 0 0 1 3-1 12 12 0 0 1 3 1v11a13 13 0 0 0 0 3h2v1ZM170 27v-1l1-1h2v5h5v1h-1v1h-4v11l1 1a2 2 0 0 0 1 0h1a346 346 0 0 1 1-3h2v4h-2l-3 1-3-1-2-4v-9h-3v-1l1-1h3v-3ZM194 33a23 23 0 0 1 1-2h-2v-1h1a22 22 0 0 1 6 0v1h-1a4 4 0 0 0-2 0v1a14 14 0 0 0 0 1l-1 1-6 15-1 2-2 1-1 1a8 8 0 0 1-4 0h-1l1-3a7 7 0 0 0 3 1l1-1 1-1 1-3-5-13a10 10 0 0 0-1-2h-2v-1h1a26 26 0 0 1 7 0v1h-2v1a126 126 0 0 1 2 5l2 6 4-10Z" fill="#fff"/>
  <path d="M51 15 39 5l12 22L64 0 51 15Z" fill="#ED3724"/>
</svg>