<svg width="11" height="11" viewBox="0 0 11 11" fill="none" xmlns="http://www.w3.org/2000/svg">
<path fill-rule="evenodd" clip-rule="evenodd" d="M8.59846 0.213449C8.31386 -0.0711496 7.85442 -0.0711496 7.56982 0.213449L0.622548 7.14864C0.581704 7.18941 0.554772 7.24204 0.545587 7.29901C0.456064 7.85438 0.365365 8.41096 0.27462 8.96781L0.274386 8.96925C0.183732 9.52555 0.0930337 10.0821 0.00349689 10.6375C-0.0105511 10.7247 0.0182275 10.8133 0.0808127 10.8755C0.143398 10.9378 0.23213 10.9661 0.319199 10.9515L2.22825 10.6332L2.2617 10.6324L2.25762 10.6283L3.64518 10.3969C3.70153 10.3875 3.75353 10.3608 3.79392 10.3204C5.58479 8.52948 6.43471 7.68276 7.28883 6.83186L7.28888 6.83181L7.28898 6.8317L7.28921 6.83147L7.29888 6.82184L7.32562 6.7952L7.32584 6.79498C8.17233 5.95166 9.01442 5.11273 10.7297 3.39745C10.901 3.25987 10.9686 3.05935 10.964 2.87454C10.9593 2.68648 10.8813 2.49636 10.7417 2.35676L8.59846 0.213449ZM0.797432 9.1681L1.78127 10.152L3.46245 9.87161C3.45244 9.86387 3.44282 9.8554 3.43363 9.84622L1.07111 7.48367C0.986607 8.00723 0.901135 8.53173 0.815702 9.05599L0.815494 9.05726L0.815343 9.05819L0.815313 9.05837L0.797432 9.1681ZM1.5307 7.01669L3.89692 9.38293C3.90697 9.39298 3.91616 9.40357 3.92449 9.4146C5.37042 7.96921 6.13451 7.20799 6.90192 6.44347L6.91196 6.43347L6.93869 6.40683C7.54371 5.80409 8.14637 5.20368 9.06727 4.28388C9.06086 4.27846 9.05462 4.27273 9.04858 4.26669L6.66912 1.88721L1.5307 7.01669ZM10.4159 2.88812C10.4171 2.93559 10.4007 2.95945 10.3839 2.97194L10.3541 2.99776L9.52925 3.82233C9.52377 3.81584 9.51798 3.80952 9.51186 3.8034L7.13281 1.42432L7.95747 0.601101C8.02797 0.530593 8.1403 0.530595 8.21081 0.601101L10.3541 2.74441C10.392 2.78236 10.4147 2.83762 10.4159 2.88812Z" fill="#1C85E8"/>
</svg>
